<svg width="43" height="42" viewBox="0 0 43 42" fill="none" xmlns="http://www.w3.org/2000/svg">
<g clip-path="url(#clip0_6_647)">
<path d="M16.3727 29.1026H27.2692C27.6086 29.1026 27.8836 28.8333 27.8836 28.501C27.8836 28.1687 27.6086 27.8994 27.2692 27.8994H16.3727C16.0334 27.8994 15.7583 28.1687 15.7583 28.501C15.7583 28.8333 16.0334 29.1026 16.3727 29.1026ZM18.298 15.3001H25.5927C26.149 15.3001 26.6313 14.9499 26.7929 14.4287L28.3239 9.48942C28.4405 9.11344 28.3702 8.71676 28.1311 8.40119C27.8921 8.08561 27.525 7.90464 27.1237 7.90464H26.5787L25.4651 5.17868C25.2091 4.55106 24.5977 4.14556 23.9074 4.14556H19.9833C19.2931 4.14556 18.6817 4.55106 18.4256 5.17836L17.312 7.90456H16.767C16.3657 7.90456 15.9986 8.08553 15.7595 8.40119C15.5204 8.71684 15.4502 9.11344 15.5667 9.48942L17.0978 14.4287C17.2594 14.9499 17.7417 15.3001 18.298 15.3001ZM16.7466 9.11785C16.7651 9.0933 20.0886 9.11576 20.1124 9.10782C20.4517 9.10782 20.7268 8.83845 20.7268 8.50619C20.7268 8.17393 20.4517 7.90456 20.1124 7.90456H18.6354L19.5666 5.62509C19.6351 5.45728 19.7986 5.34882 19.9833 5.34882H23.9074C24.0921 5.34882 24.2556 5.45728 24.3241 5.62525L25.2553 7.90456H22.9796C22.6402 7.90456 22.3652 8.17393 22.3652 8.50619C22.3652 8.83845 22.6402 9.10782 22.9796 9.10782C23.0003 9.10782 27.1284 9.09707 27.1441 9.11785C27.1624 9.142 25.6169 14.054 25.6169 14.0793C25.6169 14.1327 18.2769 14.0898 18.2737 14.0793C18.2659 14.054 16.7283 9.14192 16.7466 9.11785ZM16.3727 35.1045C16.0334 35.1045 15.7583 35.3739 15.7583 35.7061C15.7583 36.0384 16.0334 36.3078 16.3727 36.3078H27.2692C27.6086 36.3078 27.8836 36.0384 27.8836 35.7061C27.8836 35.3739 27.6086 35.1045 27.2692 35.1045H16.3727ZM32.7991 33.2996C32.7991 32.9674 32.5241 32.698 32.1846 32.698H16.3727C16.0334 32.698 15.7583 32.9674 15.7583 33.2996C15.7583 33.6319 16.0334 33.9013 16.3727 33.9013H32.1846C32.5241 33.9013 32.7991 33.6319 32.7991 33.2996ZM35.8712 26.8717C36.2106 26.8717 36.4857 26.6023 36.4857 26.2701V3.54393C36.4857 1.88519 35.1075 0.535767 33.4135 0.535767H10.4772C8.78316 0.535767 7.40503 1.88519 7.40503 3.54393V38.599C7.40503 40.2578 8.78316 41.6072 10.4772 41.6072H33.4136C35.1076 41.6072 36.4858 40.2578 36.4858 38.599V29.0777C36.4858 28.7454 36.2107 28.4761 35.8713 28.4761C35.5319 28.4761 35.2569 28.7454 35.2569 29.0777V38.599C35.2569 39.5943 34.4299 40.4039 33.4136 40.4039H10.4772C9.46075 40.4039 8.63389 39.5943 8.63389 38.599V3.54393C8.63389 2.54867 9.46075 1.73903 10.4772 1.73903H33.4136C34.4299 1.73903 35.2569 2.54867 35.2569 3.54393V26.2701C35.2568 26.6023 35.5319 26.8717 35.8712 26.8717ZM13.9436 29.564C13.6411 29.5677 13.3238 29.5706 13.033 29.5721C13.2396 29.2974 13.5009 28.9431 13.8267 28.4872C14.1125 28.0875 14.3147 27.7256 14.3674 27.3496C14.376 27.288 14.3925 27.1774 14.3925 27.1186C14.3925 26.2222 13.6477 25.4929 12.7322 25.4929C11.9407 25.4929 11.2555 26.0444 11.1031 26.8042C11.0377 27.1302 11.2546 27.4465 11.5876 27.5105C11.9206 27.5745 12.2436 27.3622 12.3089 27.0361C12.3484 26.8391 12.5264 26.6962 12.7322 26.6962C12.9598 26.6962 13.1469 26.8696 13.1626 27.0886C13.1781 27.3048 13.0655 27.4538 12.82 27.7972C12.1744 28.7004 11.7893 29.1942 11.5824 29.4594C11.2212 29.9225 11.0486 30.526 11.6743 30.7302C11.755 30.7565 13.3769 30.7744 13.959 30.7672C14.2984 30.7631 14.57 30.4903 14.5657 30.1581C14.5614 29.8258 14.28 29.5576 13.9436 29.564ZM32.1846 25.4928H16.3727C16.0334 25.4928 15.7583 25.7622 15.7583 26.0945C15.7583 26.4267 16.0334 26.6961 16.3727 26.6961H32.1846C32.5241 26.6961 32.7991 26.4267 32.7991 26.0945C32.7991 25.7622 32.5241 25.4928 32.1846 25.4928ZM12.8287 32.698C12.0371 32.698 11.352 33.2495 11.1995 34.0092C11.1341 34.3352 11.351 34.6515 11.684 34.7155C12.0168 34.7795 12.3399 34.5672 12.4054 34.2411C12.4448 34.0441 12.6229 33.9013 12.8287 33.9013C13.0666 33.9013 13.2601 34.0907 13.2601 34.3237C13.2601 34.5566 13.0666 34.7461 12.8287 34.7461C12.4893 34.7461 12.2142 35.0155 12.2142 35.3477C12.2142 35.68 12.4893 35.9494 12.8287 35.9494C13.0666 35.9494 13.2601 36.1388 13.2601 36.3718C13.2601 36.6047 13.0666 36.7942 12.8287 36.7942C12.6146 36.7942 12.4309 36.6383 12.4014 36.4312C12.3986 36.4117 12.3972 36.3918 12.3972 36.3718C12.3972 36.0395 12.1221 35.7702 11.7828 35.7702C11.4435 35.7702 11.1684 36.0395 11.1684 36.3718C11.1684 37.2555 11.9173 37.9975 12.8287 37.9975C13.7442 37.9975 14.4889 37.2682 14.4889 36.3718C14.4889 35.9839 14.349 35.6275 14.1165 35.3477C14.349 35.0679 14.4889 34.7116 14.4889 34.3237C14.4889 33.4272 13.7442 32.698 12.8287 32.698ZM12.8287 23.5244C13.168 23.5244 13.4431 23.255 13.4431 22.9227V18.9207C13.4431 18.5884 13.168 18.3191 12.8287 18.3191H11.955C11.6157 18.3191 11.3406 18.5884 11.3406 18.9207C11.3406 19.2529 11.6157 19.5223 11.955 19.5223H12.2142V22.9227C12.2142 23.255 12.4893 23.5244 12.8287 23.5244ZM16.3727 21.9288H27.2692C27.6086 21.9288 27.8836 21.6595 27.8836 21.3272C27.8836 20.995 27.6086 20.7256 27.2692 20.7256H16.3727C16.0334 20.7256 15.7583 20.995 15.7583 21.3272C15.7583 21.6595 16.0334 21.9288 16.3727 21.9288ZM32.1846 18.3191H16.3727C16.0334 18.3191 15.7583 18.5884 15.7583 18.9207C15.7583 19.2529 16.0334 19.5223 16.3727 19.5223H32.1846C32.5241 19.5223 32.7991 19.2529 32.7991 18.9207C32.7991 18.5884 32.5241 18.3191 32.1846 18.3191Z" fill="#09A66D"/>
</g>
<defs>
<clipPath id="clip0_6_647">
<rect width="41.9452" height="41.0714" fill="white" transform="translate(0.972412 0.535767)"/>
</clipPath>
</defs>
</svg>
