<svg width="56" height="56" viewBox="0 0 56 56" fill="none" xmlns="http://www.w3.org/2000/svg">
<circle cx="28" cy="28" r="28" fill="#F3FBF8"/>
<g clip-path="url(#clip0_3_488)">
<path d="M43.9541 24.3286C43.8438 23.9891 43.5504 23.7418 43.1973 23.6905L33.2772 22.2489L28.8407 13.2597C28.6828 12.9397 28.3569 12.7372 28 12.7372C27.6432 12.7372 27.3173 12.9397 27.1593 13.2597L22.7226 22.2489L12.8027 23.6905C12.4496 23.7418 12.1561 23.9891 12.0459 24.3285C11.9356 24.668 12.0276 25.0405 12.2831 25.2895L19.4611 32.2867L17.7669 42.1668C17.7065 42.5186 17.8512 42.874 18.1399 43.0838C18.4285 43.2935 18.8112 43.3213 19.1272 43.1551L28 38.4903L36.8725 43.1551C37.0097 43.2272 37.1594 43.2628 37.3087 43.2628C37.5031 43.2628 37.6966 43.2024 37.8598 43.0838C38.1485 42.874 38.2931 42.5185 38.2328 42.1668L36.5381 32.2867L43.7168 25.2895C43.9724 25.0405 44.0644 24.6679 43.9541 24.3286Z" fill="#FED42D"/>
<path d="M43.9543 24.3286C43.844 23.9891 43.5507 23.7418 43.1975 23.6905L33.2774 22.2489L28.8409 13.2597C28.683 12.9397 28.3571 12.7372 28.0002 12.7372V38.4903L36.8728 43.1551C37.01 43.2273 37.1597 43.2628 37.309 43.2628C37.5034 43.2628 37.6969 43.2025 37.8601 43.0839C38.1488 42.8741 38.2934 42.5186 38.2331 42.1669L36.5383 32.2867L43.717 25.2895C43.9726 25.0405 44.0646 24.6679 43.9543 24.3286Z" fill="#FCBF29"/>
</g>
<defs>
<clipPath id="clip0_3_488">
<rect width="32" height="32" fill="white" transform="translate(12 12)"/>
</clipPath>
</defs>
</svg>
