<svg width="56" height="56" viewBox="0 0 56 56" fill="none" xmlns="http://www.w3.org/2000/svg">
<circle cx="28" cy="28" r="28" fill="#F3FBF8"/>
<g clip-path="url(#clip0_3_473)">
<path d="M28.0022 12C23.4308 12 19.6938 15.7369 19.6938 20.3084C19.6938 24.8799 23.4308 28.6168 28.0022 28.6168C32.5737 28.6168 36.3106 24.8799 36.3106 20.3084C36.3106 15.7369 32.5737 12 28.0022 12Z" fill="#09A66D"/>
<path d="M42.2606 35.2563C42.0429 34.7121 41.7527 34.2041 41.4262 33.7325C39.7572 31.2653 37.1813 29.6327 34.2788 29.2336C33.9161 29.1973 33.517 29.2698 33.2267 29.4875C31.7029 30.6123 29.8888 31.1927 28.0022 31.1927C26.1155 31.1927 24.3015 30.6123 22.7777 29.4875C22.4874 29.2698 22.0883 29.161 21.7255 29.2336C18.823 29.6327 16.2108 31.2653 14.5781 33.7325C14.2516 34.2041 13.9613 34.7484 13.7437 35.2563C13.6349 35.474 13.6711 35.728 13.7799 35.9457C14.0702 36.4536 14.433 36.9616 14.7595 37.3969C15.2674 38.0863 15.8117 38.703 16.4285 39.2835C16.9364 39.7914 17.5169 40.2631 18.0974 40.7348C20.9636 42.8754 24.4104 44 27.9659 44C31.5215 44 34.9682 42.8753 37.8344 40.7348C38.4149 40.2994 38.9954 39.7914 39.5033 39.2835C40.0838 38.703 40.6643 38.0862 41.1723 37.3969C41.5351 36.9252 41.8617 36.4536 42.1519 35.9457C42.3332 35.728 42.3695 35.4739 42.2606 35.2563Z" fill="#09A66D"/>
</g>
<defs>
<clipPath id="clip0_3_473">
<rect width="32" height="32" fill="white" transform="translate(12 12)"/>
</clipPath>
</defs>
</svg>
