<svg width="44" height="42" viewBox="0 0 44 42" fill="none" xmlns="http://www.w3.org/2000/svg">
<path d="M41.5129 12.3157H34.1865C32.9222 12.3157 31.8936 13.3561 31.8936 14.6351V23.1604H29.1532C29.3055 22.6006 29.3619 21.9404 29.3249 21.1721V21.1721C29.2654 17.9253 28.6827 15.1889 27.5927 13.039C26.7463 11.3697 25.7587 10.369 24.9111 9.77069C25.9059 8.73666 26.4811 7.26568 26.4811 5.56914C26.4811 2.5167 24.0725 0.0334473 21.1122 0.0334473C18.1518 0.0334473 15.7433 2.5167 15.7433 5.56914C15.7433 5.92258 16.0266 6.20896 16.3761 6.20896H16.8062C16.7666 6.45038 16.7455 6.69641 16.7455 6.94628C16.7455 9.09743 18.2659 10.8953 20.276 11.2982C20.0653 12.0892 19.9606 13.0219 19.961 14.0814L18.3826 15.454L14.5419 15.768L10.1116 14.2874C9.70559 14.1509 9.24537 13.9966 8.84607 14.2877C8.4526 14.5748 8.4526 15.0773 8.4526 15.2424V18.5724C8.4526 18.9259 8.73595 19.2123 9.08546 19.2123H9.83891L8.6833 23.2494C8.58618 23.5888 8.77958 23.9437 9.11534 24.0418C9.45126 24.1405 9.80204 23.9445 9.89924 23.6052L11.1567 19.2123H12.9559C10.7181 26.1114 11.995 30.7165 13.9576 35.377H12.82L8.08166 30.0208L9.08361 26.5214C9.18082 26.182 8.98741 25.8272 8.65166 25.729C8.3159 25.6308 7.96496 25.8263 7.86775 26.1657L6.90942 29.513C3.94542 29.463 1.29414 31.529 0.618497 34.5014C0.540275 34.8457 0.752833 35.189 1.09331 35.2682L1.99173 35.4772C1.76221 37.8873 3.33214 40.1612 5.72639 40.7184C6.08999 40.8031 6.45671 40.8449 6.82091 40.8449C7.71907 40.8449 8.60145 40.5903 9.3819 40.0958C10.2979 39.5155 10.9803 38.6624 11.3497 37.6543L12.0586 37.8192C12.2698 37.8685 12.4701 37.8935 12.6703 37.7846C12.8565 37.6833 12.9803 37.5003 13.0267 37.2937C13.0712 37.0843 13.1052 36.8715 13.1287 36.6566H26.3647C26.7879 39.3172 29.027 41.3227 31.7012 41.3227C34.3753 41.3227 36.6145 39.3172 37.0377 36.6566H37.5207C37.5207 36.6566 37.6166 36.6578 37.6385 36.6578C37.8195 36.6578 38.0809 36.6375 38.2955 36.4167C38.403 36.3062 38.529 36.1085 38.5193 35.7945C38.5015 35.1937 38.4123 34.6132 38.2601 34.0614C38.7642 30.9674 38.2792 29.083 37.5601 27.6083C38.0147 27.307 38.3161 26.788 38.3161 26.1984V24.4399H41.5128C42.7771 24.4399 43.8057 23.3995 43.8057 22.1205V14.635C43.8058 13.3561 42.7773 12.3157 41.5129 12.3157ZM8.7098 39.0117C7.89964 39.525 6.94107 39.6882 6.0105 39.4716H6.01042C4.29763 39.073 3.15493 37.4852 3.23822 35.7682L10.1029 37.3656C9.81891 38.0416 9.33836 38.6135 8.7098 39.0117ZM11.8765 36.4638L2.03206 34.1736C2.79175 32.0704 4.83616 30.6782 7.07085 30.798L11.8934 36.2493C11.8891 36.3212 11.8836 36.3927 11.8765 36.4638ZM21.4357 25.3144C21.252 25.8042 21.252 26.4081 21.252 27.2441V29.6585H18.9346V26.3461C18.9346 22.6012 20.9562 21.9339 21.8635 21.8237H28.068C28.043 22.6737 27.8534 23.2778 27.4932 23.6613C27.0735 24.1081 26.3553 24.3258 25.2975 24.3269L23.0259 24.3293C22.2158 24.3293 21.6808 24.6607 21.4357 25.3144ZM21.252 30.938V32.4658C21.2463 32.4658 21.2403 32.4658 21.2343 32.4658H16.739C16.7895 31.992 16.9355 31.6253 17.1752 31.3716C17.5318 30.9944 18.0341 30.938 18.3017 30.938H21.252ZM28.0401 20.5442H22.2847C22.0535 19.8089 21.8475 19.0038 21.678 18.1763L23.4279 17.028C24.3831 16.4009 24.88 15.5148 24.7912 14.5968C24.7126 13.783 24.1654 13.0561 23.3971 12.745C22.6956 12.4609 21.9405 12.5501 21.2731 12.9815C21.3281 12.3695 21.4305 11.8232 21.5787 11.3595C21.8485 11.3313 22.1164 11.278 22.3795 11.1998C22.9151 11.074 23.41 10.8737 23.8568 10.6079C25.0757 11.3441 27.7565 13.7321 28.0401 20.5442ZM17.0553 4.92941C17.3538 2.88507 19.0593 1.31317 21.1122 1.31317C23.3746 1.31317 25.2153 3.22246 25.2153 5.56923C25.2153 7.47793 24.31 9.0163 22.8502 9.69332V6.32677C22.8502 5.74386 22.6295 5.0288 21.5786 4.93205C21.5596 4.93026 21.5404 4.92941 21.5213 4.92941H17.0553ZM18.0113 6.94637C18.0113 6.69385 18.0397 6.44723 18.0957 6.20904H21.4902C21.5293 6.21331 21.5578 6.21792 21.5782 6.2221C21.5815 6.24581 21.5844 6.27994 21.5844 6.32677V10.0698C21.4336 10.0922 21.2819 10.1036 21.1302 10.1037C21.1288 10.1037 21.1274 10.1037 21.126 10.1037C19.4083 10.102 18.0113 8.68633 18.0113 6.94637ZM17.1909 16.8354L18.6898 16.7128C18.8234 16.702 18.9501 16.6485 19.0517 16.5602L21.757 14.2078L21.7574 14.2074C22.019 13.9795 22.2982 13.8626 22.5701 13.8626C22.6911 13.8626 22.8107 13.8858 22.9265 13.9327C23.261 14.0681 23.4984 14.3776 23.5317 14.7211C23.5734 15.1533 23.2918 15.5915 22.7388 15.9546L19.7243 17.9327H17.191V16.8354H17.1909ZM14.5163 17.0541L15.9251 16.9389V17.9329H14.288C14.0758 17.9329 14.0241 17.7546 14.018 17.605C14.0146 17.5202 14.0225 17.0951 14.5163 17.0541ZM13.0184 16.6124C12.8278 16.9284 12.7388 17.298 12.7534 17.6574C12.7572 17.7505 12.7689 17.8401 12.7853 17.9275C12.7853 17.9293 12.7843 17.9311 12.7846 17.9328H9.7185V15.5038L13.0209 16.6074C13.0199 16.6091 13.0194 16.6108 13.0184 16.6124ZM14.2916 19.2124H19.9115C20.0338 19.2124 20.1535 19.1766 20.256 19.1093L20.5425 18.9213C20.6803 19.537 20.8373 20.1362 21.0082 20.7022C19.7175 21.0873 17.6688 22.3321 17.6688 26.346V29.7227C17.2248 29.8133 16.6995 30.0226 16.2601 30.4874C15.797 30.9775 15.5324 31.6414 15.469 32.4657H14.1923C12.9058 28.7174 12.4165 24.7287 14.2916 19.2124ZM15.3347 35.3749C15.1008 34.831 14.8753 34.2892 14.663 33.7454H21.2342C22.0859 33.7454 22.5176 33.3534 22.5176 32.5804V30.2982V27.8838H27.513C27.8626 27.8838 28.1458 27.5974 28.1458 27.244C28.1458 26.8906 27.8626 26.6042 27.513 26.6042H22.5222C22.5303 26.2408 22.5533 25.9436 22.6192 25.768C22.6512 25.6826 22.6789 25.6089 23.0265 25.6089L25.2987 25.6065C26.7218 25.6051 27.7399 25.2571 28.4111 24.5424C28.4422 24.5093 28.4715 24.4745 28.501 24.44H32.5265H37.0506V26.1985C37.0506 26.4184 36.8673 26.6042 36.6503 26.6042H30.3499C30.0003 26.6042 29.717 26.8906 29.717 27.244C29.717 27.5974 30.0003 27.8838 30.3499 27.8838H36.2784C36.7786 28.8225 37.2285 29.9904 37.2018 31.8358C35.9497 30.0775 33.9228 28.9469 31.6224 28.9469C29.7749 28.9469 28.0414 29.6795 26.7409 31.0099C25.587 32.1903 24.894 33.7224 24.7514 35.377L15.3347 35.3749ZM31.7013 40.0432C29.7228 40.0432 28.0543 38.6021 27.6506 36.6568H35.7519C35.3482 38.6019 33.6796 40.0432 31.7013 40.0432ZM36.4709 35.3772H26.9318H26.0226C26.3333 32.4841 28.726 30.2265 31.6224 30.2265C34.1652 30.2265 36.3007 31.9217 37.0079 34.2947C37.0101 34.3022 37.0124 34.3097 37.015 34.3171C37.1149 34.6576 37.1856 35.012 37.2238 35.3772H36.4709ZM42.5401 22.1206C42.5401 22.694 42.0793 23.1604 41.5129 23.1604H33.1593V19.8563H42.5401V22.1206ZM42.5401 18.5766H33.1593V17.2159H42.5401V18.5766ZM42.5401 15.9362H33.1593V14.6351C33.1593 14.0617 33.6201 13.5953 34.1865 13.5953H41.5129C42.0793 13.5953 42.5401 14.0618 42.5401 14.6351V15.9362Z" fill="#09A66D"/>
</svg>
