<svg width="45" height="40" viewBox="0 0 45 40" fill="none" xmlns="http://www.w3.org/2000/svg">
<g clip-path="url(#clip0_6_623)">
<path d="M4.15728 11.6571H10.8317C11.1812 11.6571 11.4646 11.3948 11.4646 11.0712C11.4646 10.7475 11.1812 10.4852 10.8317 10.4852H4.15728C3.80777 10.4852 3.52441 10.7475 3.52441 11.0712C3.52441 11.3948 3.80768 11.6571 4.15728 11.6571Z" fill="#09A66D"/>
<path d="M10.6032 14.478H7.9666C7.61709 14.478 7.33374 14.7402 7.33374 15.0639C7.33374 15.3876 7.61709 15.6498 7.9666 15.6498H10.6032C10.9527 15.6498 11.2361 15.3876 11.2361 15.0639C11.2361 14.7402 10.9527 14.478 10.6032 14.478Z" fill="#09A66D"/>
<path d="M1.51006 18.5412H7.96629C8.3158 18.5412 8.59916 18.2789 8.59916 17.9553C8.59916 17.6316 8.3158 17.3693 7.96629 17.3693H1.51006C1.16055 17.3693 0.877197 17.6316 0.877197 17.9553C0.877197 18.2789 1.16055 18.5412 1.51006 18.5412Z" fill="#09A66D"/>
<path d="M11.4646 28.9289C11.4646 28.6052 11.1812 28.343 10.8317 28.343H4.15728C3.80777 28.343 3.52441 28.6052 3.52441 28.9289C3.52441 29.2526 3.80777 29.5148 4.15728 29.5148H10.8317C11.1812 29.5148 11.4646 29.2526 11.4646 28.9289Z" fill="#09A66D"/>
<path d="M10.6032 24.3503H7.9666C7.61709 24.3503 7.33374 24.6125 7.33374 24.9362C7.33374 25.2599 7.61709 25.5222 7.9666 25.5222H10.6032C10.9527 25.5222 11.2361 25.2599 11.2361 24.9362C11.2361 24.6125 10.9527 24.3503 10.6032 24.3503Z" fill="#09A66D"/>
<path d="M8.59916 22.0448C8.59916 21.7211 8.3158 21.4589 7.96629 21.4589H1.51006C1.16055 21.4589 0.877197 21.7211 0.877197 22.0448C0.877197 22.3685 1.16055 22.6307 1.51006 22.6307H7.96629C8.3158 22.6307 8.59916 22.3685 8.59916 22.0448Z" fill="#09A66D"/>
<path d="M27.8397 12.9555C28.1892 12.9555 28.4725 12.6933 28.4725 12.3696V11.4752C28.4725 11.1515 28.1892 10.8893 27.8397 10.8893C27.4901 10.8893 27.2068 11.1515 27.2068 11.4752V12.3696C27.2068 12.6933 27.4901 12.9555 27.8397 12.9555Z" fill="#09A66D"/>
<path d="M34.7981 13.5577C34.5509 13.329 34.1503 13.329 33.9031 13.5577L33.22 14.1902C32.9729 14.4191 32.9729 14.79 33.22 15.0188C33.4674 15.2476 33.8679 15.2476 34.1151 15.0188L34.7981 14.3864C35.0452 14.1576 35.0452 13.7866 34.7981 13.5577Z" fill="#09A66D"/>
<path d="M36.0806 19.4141C35.731 19.4141 35.4478 19.6764 35.4478 20.0001C35.4478 20.3237 35.731 20.586 36.0806 20.586H37.0465C37.3961 20.586 37.6794 20.3237 37.6794 20.0001C37.6794 19.6764 37.3961 19.4141 37.0465 19.4141H36.0806Z" fill="#09A66D"/>
<path d="M34.1151 24.9812C33.8678 24.7524 33.4672 24.7524 33.22 24.9812C32.9729 25.2101 32.9729 25.581 33.22 25.8099L33.9031 26.4423C34.1504 26.6711 34.551 26.6711 34.7982 26.4423C35.0453 26.2134 35.0453 25.8425 34.7982 25.6136L34.1151 24.9812Z" fill="#09A66D"/>
<path d="M27.2068 27.6305V28.5248C27.2068 28.8485 27.4901 29.1107 27.8397 29.1107C28.1892 29.1107 28.4725 28.8485 28.4725 28.5248V27.6305C28.4725 27.3068 28.1892 27.0446 27.8397 27.0446C27.4901 27.0446 27.2068 27.3069 27.2068 27.6305Z" fill="#09A66D"/>
<path d="M21.5645 24.9812L20.8814 25.6136C20.6343 25.8425 20.6343 26.2135 20.8814 26.4423C21.1286 26.6711 21.5293 26.6711 21.7764 26.4423L22.4594 25.8099C22.7066 25.581 22.7066 25.21 22.4594 24.9812C22.2124 24.7524 21.8116 24.7524 21.5645 24.9812Z" fill="#09A66D"/>
<path d="M18.6319 19.4141C18.2824 19.4141 17.999 19.6764 17.999 20.0001C17.999 20.3237 18.2824 20.586 18.6319 20.586H19.5979C19.9474 20.586 20.2308 20.3237 20.2308 20.0001C20.2308 19.6764 19.9474 19.4141 19.5979 19.4141H18.6319Z" fill="#09A66D"/>
<path d="M22.4597 14.1902L21.7766 13.5577C21.5295 13.329 21.1287 13.329 20.8817 13.5577C20.6345 13.7866 20.6345 14.1576 20.8817 14.3864L21.5647 15.0188C21.812 15.2476 22.2126 15.2476 22.4597 15.0188C22.7068 14.79 22.7068 14.4191 22.4597 14.1902Z" fill="#09A66D"/>
<path d="M31.2428 20.0001C31.2428 19.6764 30.9595 19.4141 30.6099 19.4141H28.4725V15.0638C28.4725 14.7402 28.1892 14.4779 27.8397 14.4779C27.4901 14.4779 27.2068 14.7402 27.2068 15.0638V20.0001C27.2068 20.3238 27.4901 20.586 27.8397 20.586H30.6099C30.9594 20.586 31.2428 20.3238 31.2428 20.0001Z" fill="#09A66D"/>
<path d="M39.8397 19.9033C40.1886 19.8837 40.4542 19.606 40.4331 19.283C40.0305 13.1344 34.4987 8.31787 27.8395 8.31787C20.882 8.31787 15.2217 13.5585 15.2217 20.0001C15.2217 26.4417 20.882 31.6823 27.8395 31.6823C34.0727 31.6823 39.3914 27.454 40.3166 21.7482C40.3685 21.4282 40.1304 21.1298 39.7847 21.0818C39.4399 21.0339 39.1168 21.2541 39.0649 21.5743C38.2337 26.7004 33.453 30.5105 27.8395 30.5105C21.5799 30.5105 16.4874 25.7956 16.4874 20.0002C16.4874 14.2048 21.5799 9.48982 27.8395 9.48982C33.8307 9.48982 38.8074 13.8227 39.1696 19.3541C39.1907 19.6769 39.4904 19.9221 39.8397 19.9033Z" fill="#09A66D"/>
<path d="M27.8401 4.96326C25.614 4.96326 23.433 5.39084 21.4255 6.19044H10.2593C9.90982 6.19044 9.62646 6.45271 9.62646 6.77638C9.62646 7.10005 9.90982 7.36232 10.2593 7.36232H19.0446C17.8567 8.07013 16.7632 8.92388 15.7991 9.90951C15.5645 10.1493 15.5843 10.5198 15.8433 10.7371C16.1024 10.9544 16.5025 10.936 16.7372 10.6961C19.5726 7.79755 23.6195 6.13513 27.8401 6.13513C36.0975 6.13513 42.8155 12.3549 42.8155 20.0001C42.8155 27.6451 36.0976 33.865 27.8401 33.865C19.5826 33.865 12.8647 27.6452 12.8647 20.0001C12.8647 17.3229 13.6907 14.7244 15.2533 12.4855C15.443 12.2137 15.3588 11.8511 15.0652 11.6754C14.7717 11.4999 14.38 11.5777 14.1902 11.8496C12.4949 14.2783 11.599 17.0967 11.599 20.0001C11.599 25.2943 14.5697 29.9577 19.0486 32.6378H10.2594C9.9099 32.6378 9.62655 32.9001 9.62655 33.2237C9.62655 33.5474 9.9099 33.8097 10.2594 33.8097H21.4168C23.388 34.5987 25.5597 35.0369 27.8401 35.0369C36.7954 35.0369 44.0812 28.2914 44.0812 20.0001C44.0812 11.7087 36.7954 4.96326 27.8401 4.96326Z" fill="#09A66D"/>
</g>
<defs>
<clipPath id="clip0_6_623">
<rect width="43.2036" height="40" fill="white" transform="translate(0.877197)"/>
</clipPath>
</defs>
</svg>
