<svg width="32" height="32" viewBox="0 0 32 32" fill="none" xmlns="http://www.w3.org/2000/svg">
<g clip-path="url(#clip0_23_437)" filter="url(#filter0_d_23_437)">
<path d="M27.9766 7.05607C27.9204 5.78085 27.7141 4.90416 27.4187 4.14449C27.114 3.33812 26.6452 2.61617 26.0309 2.01602C25.4307 1.40652 24.704 0.932921 23.907 0.632936C23.1429 0.337529 22.2708 0.131312 20.9956 0.0750879C19.7109 0.0141019 19.303 0 16.0446 0C12.7861 0 12.3783 0.0141019 11.0983 0.0703262C9.82309 0.126551 8.94639 0.332951 8.1869 0.628174C7.38035 0.932922 6.65841 1.40176 6.05825 2.01602C5.44876 2.61617 4.97534 3.34288 4.67517 4.13991C4.37977 4.90416 4.17355 5.77609 4.11732 7.0513C4.05634 8.33604 4.04224 8.7439 4.04224 12.0023C4.04224 15.2608 4.05634 15.6686 4.11256 16.9486C4.16879 18.2238 4.37519 19.1005 4.67059 19.8602C4.97534 20.6666 5.44876 21.3885 6.05825 21.9887C6.65841 22.5982 7.38511 23.0718 8.18214 23.3718C8.94639 23.6672 9.81833 23.8734 11.0937 23.9296C12.3735 23.986 12.7816 23.9999 16.04 23.9999C19.2984 23.9999 19.7063 23.986 20.9863 23.9296C22.2615 23.8734 23.1382 23.6672 23.8977 23.3718C25.5106 22.7482 26.7858 21.4729 27.4094 19.8602C27.7046 19.096 27.911 18.2238 27.9673 16.9486C28.0235 15.6686 28.0376 15.2608 28.0376 12.0023C28.0376 8.7439 28.0328 8.33604 27.9766 7.05607ZM25.8153 16.8549C25.7637 18.027 25.5668 18.6599 25.4027 19.0819C24.9994 20.1274 24.1696 20.9572 23.1241 21.3605C22.7021 21.5246 22.0646 21.7215 20.8971 21.7729C19.6312 21.8293 19.2516 21.8433 16.0493 21.8433C12.8471 21.8433 12.4627 21.8293 11.2014 21.7729C10.0293 21.7215 9.39637 21.5246 8.97441 21.3605C8.45411 21.1682 7.9805 20.8634 7.59609 20.4649C7.19758 20.0758 6.89283 19.6069 6.70053 19.0866C6.53644 18.6647 6.33956 18.027 6.2881 16.8596C6.23169 15.5937 6.21777 15.2139 6.21777 12.0117C6.21777 8.80946 6.23169 8.42505 6.2881 7.16394C6.33956 5.99183 6.53644 5.3589 6.70053 4.93694C6.89283 4.41645 7.19758 3.94303 7.60085 3.55843C7.98984 3.15992 8.45869 2.85517 8.97917 2.66306C9.40113 2.49896 10.0388 2.30209 11.2062 2.25044C12.472 2.19422 12.8519 2.18011 16.0539 2.18011C19.2609 2.18011 19.6406 2.19422 20.9018 2.25044C22.0739 2.30209 22.7069 2.49896 23.1288 2.66306C23.6491 2.85517 24.1228 3.15992 24.5072 3.55843C24.9057 3.94761 25.2104 4.41645 25.4027 4.93694C25.5668 5.3589 25.7637 5.99641 25.8153 7.16394C25.8716 8.42981 25.8857 8.80946 25.8857 12.0117C25.8857 15.2139 25.8716 15.589 25.8153 16.8549Z" fill="#222222"/>
<path d="M16.0447 5.83691C12.641 5.83691 9.87939 8.59832 9.87939 12.0022C9.87939 15.406 12.641 18.1674 16.0447 18.1674C19.4485 18.1674 22.2099 15.406 22.2099 12.0022C22.2099 8.59832 19.4485 5.83691 16.0447 5.83691ZM16.0447 16.0014C13.8365 16.0014 12.0454 14.2105 12.0454 12.0022C12.0454 9.79386 13.8365 8.00293 16.0447 8.00293C18.253 8.00293 20.0439 9.79386 20.0439 12.0022C20.0439 14.2105 18.253 16.0014 16.0447 16.0014Z" fill="#222222"/>
<path d="M23.8932 5.59336C23.8932 6.38819 23.2487 7.03267 22.4537 7.03267C21.6589 7.03267 21.0144 6.38819 21.0144 5.59336C21.0144 4.79834 21.6589 4.15405 22.4537 4.15405C23.2487 4.15405 23.8932 4.79834 23.8932 5.59336Z" fill="#222222"/>
</g>
<defs>
<filter id="filter0_d_23_437" x="0.00012207" y="0" width="32" height="32" filterUnits="userSpaceOnUse" color-interpolation-filters="sRGB">
<feFlood flood-opacity="0" result="BackgroundImageFix"/>
<feColorMatrix in="SourceAlpha" type="matrix" values="0 0 0 0 0 0 0 0 0 0 0 0 0 0 0 0 0 0 127 0" result="hardAlpha"/>
<feOffset dy="4"/>
<feGaussianBlur stdDeviation="2"/>
<feComposite in2="hardAlpha" operator="out"/>
<feColorMatrix type="matrix" values="0 0 0 0 0 0 0 0 0 0 0 0 0 0 0 0 0 0 0.25 0"/>
<feBlend mode="normal" in2="BackgroundImageFix" result="effect1_dropShadow_23_437"/>
<feBlend mode="normal" in="SourceGraphic" in2="effect1_dropShadow_23_437" result="shape"/>
</filter>
<clipPath id="clip0_23_437">
<rect width="24" height="24" fill="white" transform="translate(4.00012)"/>
</clipPath>
</defs>
</svg>
