<svg width="54" height="54" viewBox="0 0 54 54" fill="none" xmlns="http://www.w3.org/2000/svg">
<path d="M19.5 42C19.5 42 21.75 32.6475 27 27" stroke="#09A66D" stroke-width="3" stroke-linecap="round" stroke-linejoin="round"/>
<path d="M37.4647 15.1022L38.3997 24.8272C39.0072 31.1347 34.2772 36.7522 27.9697 37.3572C21.7822 37.9522 16.1747 33.4297 15.5797 27.2397C15.2935 24.268 16.1993 21.3042 18.0981 19.0004C19.9969 16.6965 22.7331 15.2413 25.7047 14.9547L36.0722 13.9547C36.2392 13.9385 36.4078 13.9554 36.5682 14.0045C36.7287 14.0536 36.8778 14.1338 37.0072 14.2406C37.1366 14.3475 37.2436 14.4788 37.3221 14.6271C37.4006 14.7753 37.4491 14.9376 37.4647 15.1047V15.1022Z" stroke="#09A66D" stroke-width="3" stroke-linecap="round" stroke-linejoin="round"/>
<path d="M27 52C40.8075 52 52 40.8075 52 27C52 13.1925 40.8075 2 27 2C13.1925 2 2 13.1925 2 27C2 40.8075 13.1925 52 27 52Z" stroke="#09A66D" stroke-width="3" stroke-linecap="round" stroke-linejoin="round"/>
</svg>
