<svg width="24" height="24" viewBox="0 0 24 24" fill="none" xmlns="http://www.w3.org/2000/svg">
<path d="M7.17502 21.975C6.67502 21.975 6.25002 21.8 5.90002 21.45C5.55002 21.1 5.37502 20.675 5.37502 20.175C5.37502 19.675 5.55002 19.25 5.90002 18.9C6.25002 18.55 6.67502 18.375 7.17502 18.375C7.65836 18.375 8.07919 18.55 8.43752 18.9C8.79586 19.25 8.97502 19.675 8.97502 20.175C8.97502 20.675 8.80002 21.1 8.45002 21.45C8.10002 21.8 7.67502 21.975 7.17502 21.975ZM17.175 21.975C16.675 21.975 16.25 21.8 15.9 21.45C15.55 21.1 15.375 20.675 15.375 20.175C15.375 19.675 15.55 19.25 15.9 18.9C16.25 18.55 16.675 18.375 17.175 18.375C17.6584 18.375 18.0792 18.55 18.4375 18.9C18.7959 19.25 18.975 19.675 18.975 20.175C18.975 20.675 18.8 21.1 18.45 21.45C18.1 21.8 17.675 21.975 17.175 21.975ZM5.87502 5.475L8.62502 11.175H15.825L18.95 5.475H5.87502ZM6.92502 16.775C6.22502 16.775 5.72086 16.5417 5.41252 16.075C5.10419 15.6083 5.10836 15.0833 5.42502 14.5L7.02502 11.55L3.22502 3.5H2.00002C1.80002 3.5 1.62919 3.425 1.48752 3.275C1.34586 3.125 1.27502 2.94167 1.27502 2.725C1.27502 2.525 1.34586 2.35417 1.48752 2.2125C1.62919 2.07083 1.80836 2 2.02502 2H3.72502C3.87502 2 4.00836 2.0375 4.12502 2.1125C4.24169 2.1875 4.33336 2.29167 4.40002 2.425L5.12502 3.975H19.85C20.3834 3.975 20.7209 4.1375 20.8625 4.4625C21.0042 4.7875 20.9584 5.15 20.725 5.55L17.35 11.625C17.1834 11.9083 16.95 12.1542 16.65 12.3625C16.35 12.5708 16.025 12.675 15.675 12.675H8.10002L6.70002 15.275H18.25C18.45 15.275 18.6209 15.35 18.7625 15.5C18.9042 15.65 18.975 15.825 18.975 16.025C18.975 16.2417 18.9042 16.4208 18.7625 16.5625C18.6209 16.7042 18.4417 16.775 18.225 16.775H6.92502ZM8.62502 11.175H15.825H8.62502Z" fill="#222222"/>
</svg>
